# xmcd
#
# Track frame offsets: 
#        150
#        12800
#        22988
#        35542
#        46796
#        58911
#        72519
#        85136
#        98540
#        112022
#        124650
#        136345
#        148789
#        158973
#        172923
#        186044
#        197918
#        214728
#        230539
#        244489
#        258459
#
# Disc length: 3619 seconds
#
# Revision: 0
# Processed by: cddbd v1.5.2PL0 Copyright (c) Steve Scherf et al.
# Submitted via: ExactAudioCopy v0.95b3
#
DISCID=2a0e2115
DTITLE=Howlin' Wolf  - Chess Records Outtakes,Demos and Alternate Takes 
DTITLE=1948 - 1968 - Disc 2
DYEAR=1900
DGENRE=
TTITLE0=Chocolate Drop
TTITLE1=Come Back Home
TTITLE2=Dorothy Mae #2
TTITLE3=Highway Man #1
TTITLE4=Oh Red
TTITLE5=My Last Affair
TTITLE6=Howlin'wolf Boogie
TTITLE7=Howlin'for My Baby (Wolf Is At Your Door)
TTITLE8=Highway Man #2
TTITLE9=Getting Old And Gray
TTITLE10=Come To Me Baby
TTITLE11=Don't Mess With Me Baby
TTITLE12=So Glad
TTITLE13=My Life
TTITLE14=Going Back Home
TTITLE15=I Didn't Know #1
TTITLE16=Bluebird #3
TTITLE17=You Ought To Know
TTITLE18=Nature
TTITLE19=Walk To Camp Hall
TTITLE20=My Baby Told Me
EXTD=
EXTT0=
EXTT1=
EXTT2=
EXTT3=
EXTT4=
EXTT5=
EXTT6=
EXTT7=
EXTT8=
EXTT9=
EXTT10=
EXTT11=
EXTT12=
EXTT13=
EXTT14=
EXTT15=
EXTT16=
EXTT17=
EXTT18=
EXTT19=
EXTT20=
PLAYORDER=
